# xmcd
# 
# Track frame offsets:
#     150
#     21515
#     39999
#     55960
#     72472
#     94382
#     110072
#     129132
#     144627
#     163765
#     186422
#     204272
#     222175
#     238810
#     253337
#     270732
#     289955
#     310697
# 
# Disc length: 4386
# 
# Revision: 0
# Processed by: cddbd v1.5.2PL0 Copyright (c) Steve Scherf et al.
# Submitted via: fre:ac v1.0.17
# 
DISCID=1f112012
DTITLE=群昱 - 存為愛 Disc 2 
DYEAR=2003
DGENRE=Pop
TTITLE0=有了你
TTITLE1=憑着愛
TTITLE2=難忘你
TTITLE3=赤子
TTITLE4=細水長流
TTITLE5=最愛是誰
TTITLE6=我和春天有個約會
TTITLE7=印象
TTITLE8=我祇在乎你
TTITLE9=千千闋歌
TTITLE10=愛的根源
TTITLE11=一切也願意
TTITLE12=情深說話未曾講
TTITLE13=願
TTITLE14=天若有情
TTITLE15=愛不完
TTITLE16=喜歡你
TTITLE17=及時擁抱
EXTD=· Memory. YEAR: 2003
EXTT0=
EXTT1=
EXTT2=
EXTT3=
EXTT4=
EXTT5=
EXTT6=
EXTT7=
EXTT8=
EXTT9=
EXTT10=
EXTT11=
EXTT12=
EXTT13=
EXTT14=
EXTT15=
EXTT16=
EXTT17=
PLAYORDER=
